<svg width="741" height="436" viewBox="0 0 741 436" fill="none" xmlns="http://www.w3.org/2000/svg">
<g id="pc-thinking">
<g id="pc thinking">
<path id="Vector 15" d="M684.23 5.36232H424.062V0H306.091V5.36232H44.849C42.538 5.36232 40.25 5.81751 38.114 6.70192C35.979 7.58633 34.039 8.88263 32.405 10.5168C30.771 12.151 29.475 14.091 28.59 16.2262C27.706 18.3613 27.251 20.6497 27.251 22.9608V379.213C27.251 381.524 27.706 383.813 28.59 385.948C29.475 388.083 30.771 390.023 32.405 391.657C34.039 393.291 35.979 394.588 38.114 395.472C40.25 396.356 42.538 396.812 44.849 396.812H684.23C688.9 396.812 693.38 394.957 696.68 391.657C699.98 388.357 701.83 383.88 701.83 379.213V22.9608C701.83 20.6497 701.38 18.3613 700.49 16.2262C699.61 14.091 698.31 12.151 696.68 10.5168C695.04 8.88263 693.1 7.58633 690.97 6.70192C688.83 5.81751 686.54 5.36232 684.23 5.36232Z" fill="#3F3D56"/>
<path id="Vector 16" d="M678.24 36.4638H50.845V390.377H678.24V36.4638Z" fill="#2DCC89"/>
<path id="Vector 17" d="M364.004 26.8116C367.558 26.8116 370.439 23.9306 370.439 20.3768C370.439 16.823 367.558 13.942 364.004 13.942C360.45 13.942 357.569 16.823 357.569 20.3768C357.569 23.9306 360.45 26.8116 364.004 26.8116Z" fill="#2DCC89"/>
<path id="Vector 18" d="M719.45 383.942H658.22V379.53C658.22 379.416 658.19 379.302 658.15 379.196C658.11 379.09 658.04 378.993 657.961 378.912C657.879 378.831 657.783 378.766 657.677 378.722C657.571 378.678 657.457 378.656 657.342 378.656H636.349C636.234 378.656 636.121 378.678 636.014 378.722C635.908 378.766 635.812 378.831 635.731 378.912C635.649 378.993 635.585 379.09 635.541 379.196C635.497 379.302 635.475 379.416 635.475 379.53V383.942H622.354V379.53C622.354 379.416 622.331 379.302 622.287 379.196C622.243 379.09 622.179 378.993 622.098 378.912C622.016 378.831 621.92 378.766 621.814 378.722C621.708 378.678 621.594 378.656 621.479 378.656H600.486C600.371 378.656 600.258 378.678 600.152 378.722C600.045 378.766 599.949 378.831 599.868 378.912C599.786 378.993 599.722 379.09 599.678 379.196C599.634 379.302 599.612 379.416 599.612 379.53V383.942H586.491V379.53C586.491 379.416 586.468 379.302 586.424 379.196C586.381 379.09 586.316 378.993 586.235 378.912C586.154 378.831 586.057 378.766 585.951 378.722C585.845 378.678 585.731 378.656 585.616 378.656H564.623C564.508 378.656 564.395 378.678 564.289 378.722C564.182 378.766 564.086 378.831 564.005 378.912C563.924 378.993 563.859 379.09 563.815 379.196C563.771 379.302 563.749 379.416 563.749 379.53V383.942H550.628V379.53C550.628 379.416 550.606 379.302 550.562 379.196C550.518 379.09 550.453 378.993 550.372 378.912C550.291 378.831 550.194 378.766 550.088 378.722C549.982 378.678 549.868 378.656 549.753 378.656H528.761C528.646 378.656 528.532 378.678 528.426 378.722C528.32 378.766 528.223 378.831 528.142 378.912C528.061 378.993 527.996 379.09 527.952 379.196C527.908 379.302 527.886 379.416 527.886 379.53V383.942H514.765V379.53C514.765 379.416 514.743 379.302 514.699 379.196C514.655 379.09 514.59 378.993 514.509 378.912C514.428 378.831 514.331 378.766 514.225 378.722C514.119 378.678 514.005 378.656 513.891 378.656H492.898C492.783 378.656 492.669 378.678 492.563 378.722C492.457 378.766 492.36 378.831 492.279 378.912C492.198 378.993 492.133 379.09 492.09 379.196C492.046 379.302 492.023 379.416 492.023 379.53V383.942H478.902V379.53C478.902 379.416 478.88 379.302 478.836 379.196C478.792 379.09 478.727 378.993 478.646 378.912C478.565 378.831 478.469 378.766 478.362 378.722C478.256 378.678 478.143 378.656 478.028 378.656H457.035C456.92 378.656 456.806 378.678 456.7 378.722C456.594 378.766 456.497 378.831 456.416 378.912C456.335 378.993 456.271 379.09 456.227 379.196C456.183 379.302 456.16 379.416 456.16 379.53V383.942H443.04V379.53C443.04 379.416 443.017 379.302 442.973 379.196C442.929 379.09 442.865 378.993 442.783 378.912C442.702 378.831 442.606 378.766 442.5 378.722C442.393 378.678 442.28 378.656 442.165 378.656H277.72C277.605 378.656 277.492 378.678 277.386 378.722C277.279 378.766 277.183 378.831 277.102 378.912C277.021 378.993 276.956 379.09 276.912 379.196C276.868 379.302 276.846 379.416 276.846 379.53V383.942H263.725V379.53C263.725 379.416 263.702 379.302 263.658 379.196C263.615 379.09 263.55 378.993 263.469 378.912C263.388 378.831 263.291 378.766 263.185 378.722C263.079 378.678 262.965 378.656 262.85 378.656H241.858C241.743 378.656 241.629 378.678 241.523 378.722C241.417 378.766 241.32 378.831 241.239 378.912C241.158 378.993 241.093 379.09 241.049 379.196C241.005 379.302 240.983 379.416 240.983 379.53V383.942H227.862V379.53C227.862 379.416 227.84 379.302 227.796 379.196C227.752 379.09 227.687 378.993 227.606 378.912C227.525 378.831 227.428 378.766 227.322 378.722C227.216 378.678 227.102 378.656 226.987 378.656H205.995C205.88 378.656 205.766 378.678 205.66 378.722C205.554 378.766 205.457 378.831 205.376 378.912C205.295 378.993 205.23 379.09 205.186 379.196C205.142 379.302 205.12 379.416 205.12 379.53V383.942H191.999V379.53C191.999 379.416 191.977 379.302 191.933 379.196C191.889 379.09 191.824 378.993 191.743 378.912C191.662 378.831 191.565 378.766 191.459 378.722C191.353 378.678 191.239 378.656 191.125 378.656H170.132C170.017 378.656 169.903 378.678 169.797 378.722C169.691 378.766 169.594 378.831 169.513 378.912C169.432 378.993 169.368 379.09 169.324 379.196C169.28 379.302 169.257 379.416 169.257 379.53V383.942H156.136V379.53C156.136 379.416 156.114 379.302 156.07 379.196C156.026 379.09 155.961 378.993 155.88 378.912C155.799 378.831 155.703 378.766 155.596 378.722C155.49 378.678 155.377 378.656 155.262 378.656H134.269C134.154 378.656 134.04 378.678 133.934 378.722C133.828 378.766 133.732 378.831 133.65 378.912C133.569 378.993 133.505 379.09 133.461 379.196C133.417 379.302 133.394 379.416 133.394 379.53V383.942H120.274V379.53C120.274 379.416 120.251 379.302 120.207 379.196C120.163 379.09 120.099 378.993 120.017 378.912C119.936 378.831 119.84 378.766 119.734 378.722C119.627 378.678 119.514 378.656 119.399 378.656H98.406C98.291 378.656 98.177 378.678 98.071 378.722C97.965 378.766 97.869 378.831 97.787 378.912C97.706 378.993 97.642 379.09 97.598 379.196C97.554 379.302 97.531 379.416 97.531 379.53V383.942H84.411V379.53C84.411 379.416 84.388 379.302 84.344 379.196C84.3 379.09 84.236 378.993 84.154 378.912C84.073 378.831 83.977 378.766 83.871 378.722C83.765 378.678 83.651 378.656 83.536 378.656H62.543C62.428 378.656 62.314 378.678 62.208 378.722C62.102 378.766 62.006 378.831 61.925 378.912C61.843 378.993 61.779 379.09 61.735 379.196C61.691 379.302 61.668 379.416 61.668 379.53V383.942H21.432C15.864 383.942 10.525 386.154 6.58801 390.091C2.65101 394.028 0.438995 399.367 0.438995 404.935V414.427C0.438995 419.995 2.65101 425.335 6.58801 429.272C10.525 433.209 15.864 435.42 21.432 435.42H719.45C725.01 435.42 730.35 433.209 734.29 429.272C738.23 425.335 740.44 419.995 740.44 414.427V404.935C740.44 399.367 738.23 394.028 734.29 390.091C730.35 386.154 725.01 383.942 719.45 383.942Z" fill="#3F3D56"/>
</g>
</g>
</svg>
